<?xml version="1.0" encoding="utf-8"?>
<!-- Generator: Adobe Illustrator 27.9.0, SVG Export Plug-In . SVG Version: 6.00 Build 0)  -->
<svg version="1.1" id="레이어_1" xmlns="http://www.w3.org/2000/svg" xmlns:xlink="http://www.w3.org/1999/xlink" x="0px"
	 y="0px" viewBox="0 0 93 71.2" style="enable-background:new 0 0 93 71.2;" xml:space="preserve">
<path d="M93,42.8c0,15.7-12.7,28.4-28.4,28.4H34.1c-2.1,0-3.7-1.7-3.7-3.7c0-2.1,1.7-3.7,3.7-3.7h30.4c11.6-0.1,20.9-9.5,20.8-21.1
	C85.3,31.2,76,21.9,64.6,21.8H12.7l8,8c1.4,1.5,1.4,3.8,0,5.3c-1.4,1.4-3.8,1.4-5.2,0L1.1,20.7c-1.5-1.5-1.5-3.8,0-5.3L15.4,1.1
	c1.5-1.5,3.8-1.5,5.3,0s1.5,3.8,0,5.3l0,0l-8,8h51.9C80.3,14.4,93,27.1,93,42.8z"/>
</svg>
